<svg xmlns="http://www.w3.org/2000/svg" viewBox="0 0 512 512" width="512" height="512">
  <!-- Full bleed background (no rounded corners for maskable) -->
  <rect width="512" height="512" fill="#030712"/>
  
  <!-- Logo scaled to fit inner 80% safe zone (51.2 to 460.8 = 409.6px) -->
  <!-- Original viewBox 192 → scale factor ~2.13, centered -->
  <g transform="translate(108, 108) scale(1.54)">
    <path d="M 60 48 Q 96 44 132 48 L 124 150 C 123 154 119 157 114 157 L 78 157 C 73 157 69 154 68 150 Z" 
          fill="none" 
          stroke="#f59e0b" 
          stroke-width="4" 
          stroke-linejoin="round"/>
    <path d="M 60 48 Q 72 38 85 43 Q 100 38 115 45 Q 125 40 132 48 Z" 
          fill="#f59e0b"/>
    <path d="M 65 60 L 127 60 L 120 148 C 119.5 151 117 152 114 152 L 78 152 C 75 152 72.5 151 72 148 Z" 
          fill="#f59e0b"/>
    <text x="96" y="130" text-anchor="middle" font-family="Arial, sans-serif" font-size="64" font-weight="900" fill="#030712">?</text>
  </g>
</svg>
