<svg xmlns="http://www.w3.org/2000/svg" viewBox="0 0 192 192" width="100%" height="100%">
  <rect width="192" height="192" rx="42" fill="#030712"/>
  
  <path d="M 60 48 Q 96 44 132 48 L 124 150 C 123 154 119 157 114 157 L 78 157 C 73 157 69 154 68 150 Z" 
        fill="none" 
        stroke="#f59e0b" 
        stroke-width="4" 
        stroke-linejoin="round"/>
        
  <path d="M 60 48 Q 72 38 85 43 Q 100 38 115 45 Q 125 40 132 48 Z" 
        fill="#f59e0b"/>
        
  <path d="M 65 60 L 127 60 L 120 148 C 119.5 151 117 152 114 152 L 78 152 C 75 152 72.5 151 72 148 Z" 
        fill="#f59e0b"/>
        
  <path d="M 96 79 C 88 79 81.5 84.5 80 92 L 91 92 C 91.5 89 94 87 96 87 C 99 87 101 89 101 92.5 C 101 97 94 99 94 108 L 94 112 L 105 112 L 105 108 C 105 99 113 97 113 92.5 C 113 84.5 105 79 96 79 Z M 94 121 A 5.5 5.5 0 1 0 105 121 A 5.5 5.5 0 1 0 94 121" 
        fill="#030712"/>
</svg>
