<svg xmlns="http://www.w3.org/2000/svg" viewBox="0 0 64 64" fill="none">
  <!-- Pint glass shape (wider at top, narrower at bottom, slight curve) -->
  <path d="M18 8 L15 10 C14 12 14.5 14 15 16 L19 54 C19.5 56 21 58 23 58 L41 58 C43 58 44.5 56 45 54 L49 16 C49.5 14 50 12 49 10 L46 8 Z" stroke="#f59e0b" stroke-width="2.5" stroke-linecap="round" stroke-linejoin="round" fill="none"/>
  <!-- Beer fill (3/4 level) -->
  <path d="M20 20 L19.5 50 C19.7 53 21 55 23 55 L41 55 C43 55 44.3 53 44.5 50 L44 20 Z" fill="#f59e0b" opacity="0.25"/>
  <!-- Foam top -->
  <ellipse cx="24" cy="19" rx="4" ry="3" fill="#fcd34d"/>
  <ellipse cx="32" cy="17" rx="5" ry="3.5" fill="#fcd34d"/>
  <ellipse cx="40" cy="19" rx="4" ry="3" fill="#fcd34d"/>
  <!-- Question mark -->
  <text x="32" y="44" text-anchor="middle" font-family="system-ui, sans-serif" font-size="20" font-weight="bold" fill="#f59e0b">?</text>
</svg>
